<svg width="60" height="55" viewBox="0 0 60 55" fill="none" xmlns="http://www.w3.org/2000/svg">
<path d="M57.94 4.62514C58.2682 4.5614 58.6092 4.62305 58.8917 4.79337C59.375 4.98981 59.716 5.45688 59.7181 6.00337L59.9985 44.2302C60.0208 44.6993 59.7882 45.1654 59.3495 45.4224L43.4794 54.7346C43.2553 54.9018 42.9749 55 42.6732 55C42.6 55 42.5267 54.9958 42.4566 54.9833L1.2725 50.4787C0.56402 50.4442 0 49.8664 0 49.16V10.2875H0.00212523C-0.0138075 9.76711 0.286789 9.26452 0.800886 9.043L21.4604 0.109059L21.4614 0.11115C21.6771 0.0171085 21.9214 -0.0205088 22.172 0.0108384L57.94 4.62514ZM44.4938 15.792V50.416L56.8428 43.551L56.5836 8.64489L44.4938 15.792ZM40.3715 50.7953V16.1598L23.7696 14.4284L23.1939 30.94L17.0268 26.8085L10.8598 30.2368L12.1323 12.9666L3.64117 11.7806V47.0399L40.3715 50.7953ZM38.5552 4.7756L26.0819 11.5372L42.9314 13.6521L54.2606 6.80168L38.5552 4.7756ZM14.2619 10.0534L26.3422 3.19989L22.2007 2.66594L6.70132 9.1036L14.2619 10.0534Z" fill="#D9D9D9"/>
</svg>
