<svg width="60" height="55" viewBox="0 0 60 55" fill="none" xmlns="http://www.w3.org/2000/svg">
<path d="M21.7513 20.1342C22.3942 19.5324 22.5817 19.5079 26.6266 19.5079C30.2696 19.5079 30.3902 19.5202 30.9259 19.7658C31.7028 20.1219 32.0376 20.6254 32.0376 21.4358C32.0376 22.1603 31.7162 22.6638 31.0197 23.0813C30.6447 23.3024 30.417 23.3146 26.8543 23.3392C24.6577 23.3515 22.9031 23.3146 22.6353 23.241C21.2557 22.8848 20.7468 21.0674 21.7513 20.1342ZM29.975 31.7386C22.7558 31.7386 22.5013 31.7632 21.912 32.2421C21.4432 32.6228 21.1486 33.3964 21.2289 33.949C21.3227 34.5262 21.8718 35.1893 22.4611 35.4226C22.7558 35.5454 24.3497 35.6314 30.0018 35.57L36.4173 35.4963L37.6495 35.3121C38.855 34.6858 39.0559 33.1754 38.0648 32.3158C37.3549 31.7386 37.3951 31.7386 29.975 31.7386ZM59.8964 47.7148C59.4276 51.2023 56.8159 53.9038 53.0522 54.7757C52.0879 54.9967 51.7531 55.009 29.8946 54.9967C8.75945 54.9967 7.67456 54.9845 6.85755 54.7757C5.73248 54.5055 4.76814 54.1003 3.87076 53.5477C3.12072 53.0811 2.00905 52.0987 1.59384 51.5338C1.08489 50.8461 0.495565 49.655 0.254479 48.8322C0.0133937 48.0095 0 47.6779 0 27.5389C0 7.51043 0 7.08064 0.241086 6.20877C1.08489 3.17564 3.71004 0.85474 7.09863 0.167066C8.07637 -0.0294118 51.5789 -0.0662519 52.637 0.130226C55.4765 0.658261 57.7132 2.23009 59.0124 4.6001C60.0437 6.47893 59.95 4.4159 59.9902 26.7776C60.0169 40.9977 59.9902 46.978 59.8964 47.7148ZM48.4582 24.9724C48.3109 24.3584 47.8957 23.7936 47.4269 23.5602C47.2796 23.4866 46.3554 23.4006 45.3509 23.3515C43.6901 23.2778 43.5026 23.2532 42.9668 22.9708C42.1364 22.5287 41.9087 22.0375 41.8953 20.7236C41.8953 18.2185 40.7569 15.8853 38.5067 13.7855C36.8995 12.2873 35.1181 11.2681 33.0689 10.7032C32.5867 10.5681 31.4885 10.519 27.8186 10.4822C22.0727 10.4208 20.7869 10.5313 18.8315 11.2435C15.2152 12.5575 12.6302 15.345 11.6793 18.9062C11.5051 19.5693 11.465 20.6499 11.4248 26.8021C11.3712 34.5139 11.4248 35.6559 11.9605 37.1786C13.2597 40.9486 16.9296 43.7361 20.6128 44.3501C21.845 44.5588 36.9799 44.608 38.5201 44.4115C41.2123 44.0799 43.3285 43.0853 45.3107 41.231C46.7438 39.8925 47.6412 38.4312 48.2305 36.5032C48.6591 35.1647 48.6189 25.6478 48.4582 24.9724Z" fill="#D9D9D9"/>
</svg>
