<svg width="31" height="29" viewBox="0 0 31 29" fill="none" xmlns="http://www.w3.org/2000/svg">
<path d="M21.9061 19.2778H9.18281L9.46688 20.6667H21.117C21.7854 20.6667 22.2809 21.2874 22.1327 21.9392L21.8933 22.9928C22.7045 23.3866 23.2639 24.2182 23.2639 25.1806C23.2639 26.5348 22.1563 27.6304 20.7976 27.6108C19.5032 27.5922 18.4386 26.5418 18.4037 25.2477C18.3846 24.5408 18.6678 23.9001 19.133 23.4444H10.0337C10.4841 23.8856 10.7639 24.5003 10.7639 25.1806C10.7639 26.5613 9.6125 27.6732 8.21745 27.6084C6.97873 27.5509 5.97131 26.55 5.90621 25.3117C5.85595 24.3553 6.35916 23.5124 7.1237 23.0727L4.07478 8.16666H1.04167C0.466363 8.16666 0 7.7003 0 7.125V6.43055C0 5.85525 0.466363 5.38889 1.04167 5.38889H5.49171C5.98655 5.38889 6.41306 5.73702 6.51224 6.22178L6.91007 8.16666H23.9579C24.6263 8.16666 25.1218 8.78737 24.9737 9.43919L22.9219 18.467C22.8141 18.9412 22.3925 19.2778 21.9061 19.2778ZM17.4926 13.7222H15.625V11.1181C15.625 10.8304 15.3918 10.5972 15.1042 10.5972H14.0625C13.7749 10.5972 13.5417 10.8304 13.5417 11.1181V13.7222H11.6741C11.2101 13.7222 10.9777 14.2832 11.3058 14.6113L14.2151 17.5206C14.4184 17.724 14.7482 17.724 14.9516 17.5206L17.8609 14.6113C18.189 14.2832 17.9566 13.7222 17.4926 13.7222Z" fill="white"/>
<circle cx="23.5" cy="7.5" r="7.5" fill="#B3B3B3"/>
<path d="M21.916 3.87598V11H20.5098V5.49707L18.8203 6.03418V4.92578L21.7646 3.87598H21.916ZM29.0156 6.82031V8.05078C29.0156 8.58464 28.9587 9.04525 28.8447 9.43262C28.7308 9.81673 28.5664 10.1325 28.3516 10.3799C28.14 10.624 27.8877 10.8047 27.5947 10.9219C27.3018 11.0391 26.9762 11.0977 26.6182 11.0977C26.3317 11.0977 26.0648 11.0618 25.8174 10.9902C25.57 10.9154 25.347 10.7998 25.1484 10.6436C24.9531 10.4873 24.7839 10.2904 24.6406 10.0527C24.5007 9.81185 24.3932 9.52539 24.3184 9.19336C24.2435 8.86133 24.2061 8.48047 24.2061 8.05078V6.82031C24.2061 6.28646 24.263 5.8291 24.377 5.44824C24.4941 5.06413 24.6585 4.75 24.8701 4.50586C25.085 4.26172 25.3389 4.08268 25.6318 3.96875C25.9248 3.85156 26.2503 3.79297 26.6084 3.79297C26.8949 3.79297 27.1602 3.8304 27.4043 3.90527C27.6517 3.97689 27.8747 4.08919 28.0732 4.24219C28.2718 4.39518 28.4411 4.59212 28.5811 4.83301C28.721 5.07064 28.8285 5.35547 28.9033 5.6875C28.9782 6.01628 29.0156 6.39388 29.0156 6.82031ZM27.6045 8.23633V6.62988C27.6045 6.37272 27.5898 6.14811 27.5605 5.95605C27.5345 5.764 27.4938 5.60124 27.4385 5.46777C27.3831 5.33105 27.3148 5.22038 27.2334 5.13574C27.152 5.05111 27.0592 4.98926 26.9551 4.9502C26.8509 4.91113 26.7354 4.8916 26.6084 4.8916C26.4489 4.8916 26.3073 4.92253 26.1836 4.98438C26.0632 5.04622 25.9606 5.14551 25.876 5.28223C25.7913 5.41569 25.7262 5.59473 25.6807 5.81934C25.6383 6.04069 25.6172 6.31087 25.6172 6.62988V8.23633C25.6172 8.49349 25.6302 8.71973 25.6562 8.91504C25.6855 9.11035 25.7279 9.27799 25.7832 9.41797C25.8418 9.55469 25.9102 9.66699 25.9883 9.75488C26.0697 9.83952 26.1624 9.90137 26.2666 9.94043C26.374 9.97949 26.4912 9.99902 26.6182 9.99902C26.7744 9.99902 26.9128 9.9681 27.0332 9.90625C27.1569 9.84115 27.2611 9.74023 27.3457 9.60352C27.4336 9.46354 27.4987 9.28125 27.541 9.05664C27.5833 8.83203 27.6045 8.55859 27.6045 8.23633Z" fill="white"/>
</svg>
