<svg width="60" height="55" viewBox="0 0 60 55" fill="none" xmlns="http://www.w3.org/2000/svg">
<path d="M29.2045 14.2684L10.0008 32.9128V53.0355C10.0008 53.5565 10.1764 54.0562 10.4889 54.4246C10.8014 54.793 11.2253 55 11.6673 55L23.3393 54.9644C23.7799 54.9618 24.2016 54.7537 24.5124 54.3855C24.8231 54.0174 24.9976 53.5192 24.9975 52.9999V41.2485C24.9975 40.7274 25.1731 40.2278 25.4857 39.8594C25.7982 39.4909 26.2221 39.284 26.6641 39.284H33.3302C33.7722 39.284 34.1961 39.4909 34.5087 39.8594C34.8212 40.2278 34.9968 40.7274 34.9968 41.2485V52.9913C34.9961 53.2498 35.0387 53.5059 35.1221 53.745C35.2056 53.984 35.3282 54.2013 35.4831 54.3844C35.6379 54.5675 35.8218 54.7127 36.0244 54.8118C36.2269 54.9109 36.444 54.9619 36.6633 54.9619L48.3312 55C48.7732 55 49.1971 54.793 49.5096 54.4246C49.8221 54.0562 49.9977 53.5565 49.9977 53.0355V32.8993L30.7981 14.2684C30.5724 14.054 30.2912 13.937 30.0013 13.937C29.7114 13.937 29.4302 14.054 29.2045 14.2684ZM59.5386 26.9407L50.831 18.4799V1.47338C50.831 1.08261 50.6993 0.707855 50.4649 0.431543C50.2305 0.155231 49.9126 0 49.5811 0H43.7482C43.4167 0 43.0988 0.155231 42.8644 0.431543C42.63 0.707855 42.4983 1.08261 42.4983 1.47338V10.3885L33.173 1.34446C32.278 0.476367 31.1551 0.00173533 29.9961 0.00173533C28.8372 0.00173533 27.7142 0.476367 26.8193 1.34446L0.453609 26.9407C0.327044 27.064 0.222331 27.2155 0.145453 27.3866C0.0685758 27.5576 0.0210408 27.7448 0.00556432 27.9375C-0.00991221 28.1302 0.00697307 28.3246 0.0552553 28.5096C0.103538 28.6946 0.182271 28.8666 0.286956 29.0157L2.943 32.822C3.0474 32.9716 3.17581 33.0955 3.32089 33.1866C3.46596 33.2776 3.62485 33.3341 3.78845 33.3527C3.95205 33.3713 4.11716 33.3516 4.27431 33.2949C4.43147 33.2382 4.5776 33.1455 4.70432 33.0221L29.2045 9.2344C29.4302 9.01993 29.7114 8.90298 30.0013 8.90298C30.2912 8.90298 30.5724 9.01993 30.7981 9.2344L55.2994 33.0221C55.4259 33.1455 55.5718 33.2383 55.7287 33.2952C55.8857 33.3521 56.0506 33.3721 56.2141 33.3538C56.3775 33.3356 56.5363 33.2795 56.6814 33.1889C56.8265 33.0983 56.9551 32.9748 57.0597 32.8257L59.7157 29.0194C59.8203 28.8694 59.8987 28.6966 59.9464 28.5108C59.9941 28.325 60.0102 28.1299 59.9937 27.9367C59.9773 27.7435 59.9286 27.5561 59.8505 27.3852C59.7724 27.2143 59.6664 27.0632 59.5386 26.9407Z" fill="#1E5D88"/>
</svg>
