<svg width="263" height="200" viewBox="0 0 263 200" fill="none" xmlns="http://www.w3.org/2000/svg">
<g opacity="0.53">
<path d="M122.975 200C178.203 200 222.973 188.708 222.973 174.779C222.973 160.849 178.203 149.557 122.975 149.557C67.7484 149.557 22.978 160.849 22.978 174.779C22.978 188.708 67.7484 200 122.975 200Z" fill="#E8C7AA"/>
</g>
<path d="M207.015 129.885C198.722 129.934 196.056 127.956 192.873 122.489C190.435 118.305 187.989 109.512 188.134 106.562C188.43 100.577 202.745 109.135 202.745 109.135C202.745 109.135 192.676 89.2517 197.957 84.8992C203.239 80.5468 209.951 93.803 209.951 93.803C209.951 93.803 211.999 75.6742 216.294 72.6573C222.056 68.6093 221.97 78.9389 221.97 78.9389C221.97 78.9389 229.523 65.9305 236.828 67.2171C244.133 68.5037 232.286 84.529 232.286 84.529C232.286 84.529 241.047 79.6564 242.898 84.1343C244.748 88.6107 227.054 97.1917 227.054 97.1917C227.054 97.1917 241.319 97.4395 241.023 103.424C240.727 109.409 218.688 112.698 218.688 112.698C218.688 112.698 228.139 112.477 229.176 119.45C229.747 123.283 217.187 129.824 207.015 129.885Z" fill="#006837"/>
<path d="M228.931 77.9001C228.931 77.9001 209.014 103.447 201.56 133.075" stroke="#064F44" stroke-miterlimit="10" stroke-linecap="round"/>
<path d="M231.153 88.8554L217.942 94.548C217.942 94.548 215.728 88.782 217.184 82.6243" stroke="#064F44" stroke-miterlimit="10" stroke-linecap="round"/>
<path d="M218.382 104.295L211.039 107.459C211.039 107.459 209.852 105.103 210.323 100.281" stroke="#064F44" stroke-miterlimit="10" stroke-linecap="round"/>
<path d="M212.335 119.456L204.991 122.62C204.991 122.62 203.805 120.265 204.274 115.441" stroke="#064F44" stroke-miterlimit="10" stroke-linecap="round"/>
<path d="M57.6332 152.248C56.4287 160.47 54.0745 162.812 48.2029 165.141C43.7069 166.923 34.6628 168.018 31.7759 167.429C25.9165 166.231 36.5208 153.345 36.5208 153.345C36.5208 153.345 15.3854 160.317 11.8893 154.427C8.39325 148.537 22.4845 143.891 22.4845 143.891C22.4845 143.891 4.9109 139.124 2.58271 134.413C-0.540873 128.095 9.63749 129.739 9.63749 129.739C9.63749 129.739 -2.05381 120.294 0.317119 113.251C2.68958 106.209 16.7091 120.364 16.7091 120.364C16.7091 120.364 13.2267 110.95 17.9213 109.793C22.6173 108.635 28.4095 127.462 28.4095 127.462C28.4095 127.462 30.8079 113.368 36.6673 114.566C42.5267 115.764 42.4428 138.093 42.4428 138.093C42.4428 138.093 43.6504 128.696 50.6868 128.722C54.5554 128.733 59.1095 142.162 57.6332 152.248Z" fill="#006837"/>
<path d="M9.66162 122.685C9.66162 122.685 31.855 146.274 59.9565 158.132" stroke="#064F44" stroke-miterlimit="10" stroke-linecap="round"/>
<path d="M20.8047 122.141L24.4244 136.087C24.4244 136.087 18.4017 137.409 12.5469 135.036" stroke="#064F44" stroke-miterlimit="10" stroke-linecap="round"/>
<path d="M34.1074 137.123L36.1196 144.874C36.1196 144.874 33.6173 145.693 28.9304 144.5" stroke="#064F44" stroke-miterlimit="10" stroke-linecap="round"/>
<path d="M48.1472 145.402L50.1593 153.154C50.1593 153.154 47.6571 153.973 42.9702 152.781" stroke="#064F44" stroke-miterlimit="10" stroke-linecap="round"/>
<path d="M255.886 156.235C249.439 150.231 244.793 143.149 240.371 135.596C234.548 125.652 230.395 110.931 229.605 99.2203C228.397 100.496 226.382 103.756 226.003 105.516C225.921 105.897 225.476 107.885 225.423 108.386L225.421 108.38L225.078 110.333L225.09 110.335C225.076 110.384 225.052 110.428 225.043 110.479C224.281 114.718 222.064 120.689 215.779 124.924C211.445 127.844 208.205 130.514 205.836 133.02C199.935 138.165 197.999 146.833 201.65 154.175C205.68 162.28 215.098 165.91 223.392 162.884L223.386 162.89L229.527 160.989C230.74 160.712 231.968 160.38 233.211 159.99C239.694 157.955 244.822 158.576 248.412 159.766L250.177 160.551L250.175 160.548C253.923 162.627 258.488 163.136 260.349 162.566C261.155 162.318 260.75 161.965 261.792 161.469C259.776 159.771 257.802 158.019 255.886 156.235Z" fill="#FBB03B"/>
<path d="M229.993 99.026C234.081 96.9852 244.411 109.444 253.066 126.854C261.72 144.264 265.424 160.031 261.336 162.072C257.247 164.112 246.918 151.653 238.261 134.243C229.608 116.834 225.906 101.067 229.993 99.026Z" fill="#F7931E"/>
<g opacity="0.38">
<path d="M228.968 104.491C229.374 111.008 232.968 122.093 238.861 133.945C244.753 145.797 251.42 155.348 256.366 159.599C255.96 153.082 252.366 141.997 246.475 130.145C240.582 118.293 233.915 108.742 228.968 104.491Z" fill="#F15A24"/>
</g>
<path d="M240.041 128.485C243.184 126.915 247.002 128.197 248.569 131.347C250.135 134.497 248.856 138.324 245.712 139.893C242.569 141.463 238.751 140.181 237.184 137.031C235.618 133.881 236.896 130.055 240.041 128.485Z" fill="#FBB03B"/>
<path d="M250.472 160.75C250.472 160.75 229.684 139.886 225.098 109.712" stroke="#F7931E" stroke-width="0.5" stroke-miterlimit="10" stroke-linecap="round" stroke-linejoin="round"/>
<path d="M35.7955 177.685L22.0981 49.4019L124.639 64.3364L125.862 195.247L35.7955 177.685Z" fill="#D61621"/>
<path d="M210.531 165.014L125.862 195.247L124.639 64.3364L212.611 45.9888L210.531 165.014Z" fill="#B20D1D"/>
<path opacity="0.54" d="M125.608 174.402L210.902 118.812L211.157 129.241L125.637 186.773L125.608 174.402Z" fill="#D61621"/>
<path opacity="0.54" d="M141.738 189.537L210.991 142.904L210.437 153.942L175.47 177.568L141.738 189.537Z" fill="#D61621"/>
<path opacity="0.54" d="M125.517 150.312L211.526 93.4558L211.619 104.527L125.546 162.682L125.517 150.312Z" fill="#D61621"/>
<path opacity="0.54" d="M125.429 126.221L211.436 69.365L211.531 80.4366L125.457 138.591L125.429 126.221Z" fill="#D61621"/>
<path opacity="0.54" d="M124.692 102.096L210.699 45.2406L210.792 56.3122L124.719 114.467L124.692 102.096Z" fill="#D61621"/>
<path d="M123.955 77.9735L26.8066 93.4986L28.1028 105.647L124.664 89.7274L123.955 77.9735Z" fill="#E2293A"/>
<path d="M124.693 102.096L29.4873 117.721L30.785 129.87L124.754 113.818L124.693 102.096Z" fill="#E2293A"/>
<path d="M125.429 126.221L31.5532 141.259L32.8494 153.41L125.456 138.591L125.429 126.221Z" fill="#E2293A"/>
<path d="M125.518 150.312L34.2668 164.833L35.5645 176.982L125.547 162.682L125.518 150.312Z" fill="#E2293A"/>
<path d="M125.609 174.402L67.9658 183.865L103.345 190.856L125.638 186.773L125.609 174.402Z" fill="#E2293A"/>
<path d="M12.8335 39.8203L117.495 12.549L220.358 34.0099L126.064 61.8044L12.8335 39.8203Z" fill="#D61621"/>
<path d="M12.8335 39.8203L16.4517 71.2513L123.367 89.6617L218.598 69.0743L219.062 33.9441L125.127 54.5972L12.8335 39.8203Z" fill="#B20D1D"/>
<path d="M59.6243 45.978L67.8897 183.944L85.7809 187.432L79.2848 49.0301L59.6243 45.978Z" fill="#FBB03B"/>
<path d="M158.383 47.286C158.631 47.1728 162.091 182.312 162.091 182.312L179.553 176.077L176.794 43.2395L158.383 47.286Z" fill="#FBB03B"/>
<path d="M25.619 82.7804L24.5808 72.6497L124.873 89.3359L124.534 92.3237L25.619 82.7804Z" fill="#B3B3B3"/>
<path d="M212.147 81.1174L124.533 92.3236L124.872 89.3358L212.052 70.0458L212.147 81.1174Z" fill="#B3B3B3"/>
<path d="M59.9414 46.102L146.426 18.5645L166.725 22.8205L79.2844 49.0301L59.9414 46.102Z" fill="#FFBE69"/>
<path d="M158.631 47.1729L63.5969 26.5932L84.1216 21.2448L177.003 43.5425L158.631 47.1729Z" fill="#FFBE69"/>
<path d="M117.487 32.0669C117.487 32.0669 60.6132 -8.20671 40.9252 1.76341C21.2371 11.7335 40.1679 36.2144 51.815 37.7718C71.845 40.449 117.487 32.0669 117.487 32.0669Z" fill="#FBB03B"/>
<path d="M51.6178 0.329982C51.6178 0.329982 42.9234 -1.79347 39.9311 4.73292C37.0136 11.0956 70.7379 25.1642 85.5757 27.2158C100.415 29.2658 111.462 29.1725 111.462 29.1725C111.462 29.1725 103.453 22.3493 97.7067 19.4104C91.9618 16.47 68.8754 1.41618 51.6178 0.329982Z" fill="#FFBE69"/>
<path d="M100.088 26.4799C100.088 26.4799 62.3168 2.88483 47.9752 5.82063C33.6336 8.75644 100.088 26.4799 100.088 26.4799Z" fill="#F7931E"/>
<path d="M117.001 32.0563C117.001 32.0563 175.589 -5.67016 194.819 5.15974C214.051 15.9896 194.062 39.6107 182.358 40.6525C162.231 42.444 117.001 32.0563 117.001 32.0563Z" fill="#FBB03B"/>
<path d="M186.426 3.66203C186.426 3.66203 195.24 2.11534 197.8 8.82226C200.296 15.3624 165.723 27.1867 150.783 28.2576C135.841 29.3285 122.546 28.4275 122.546 28.4275C122.546 28.4275 133.263 22.2254 139.188 19.6705C145.111 17.1157 169.134 3.61154 186.426 3.66203Z" fill="#FFBE69"/>
<path d="M134.629 27.2418C134.629 27.2418 173.399 5.33568 187.599 8.90026C201.799 12.4664 134.629 27.2418 134.629 27.2418Z" fill="#F7931E"/>
<path d="M119.621 36.2389C121.704 35.9758 123.368 34.3756 123.779 32.3133C124.464 28.8681 124.548 23.6941 119.631 21.771C111.985 18.7817 107.725 21.5936 106.695 24.9103C105.744 27.9654 107.948 37.7107 119.621 36.2389Z" fill="#FBB03B"/>
</svg>
