<svg width="61" height="56" viewBox="0 0 61 56" fill="none" xmlns="http://www.w3.org/2000/svg">
<path d="M58.44 5.12514C58.7682 5.0614 59.1092 5.12305 59.3917 5.29337C59.875 5.48981 60.216 5.95688 60.2181 6.50337L60.4985 44.7302C60.5208 45.1993 60.2882 45.6654 59.8495 45.9224L43.9794 55.2346C43.7553 55.4018 43.4749 55.5 43.1732 55.5C43.1 55.5 43.0267 55.4958 42.9566 55.4833L1.7725 50.9787C1.06402 50.9442 0.5 50.3664 0.5 49.66V10.7875H0.502125C0.486192 10.2671 0.786789 9.76452 1.30089 9.543L21.9604 0.609059L21.9614 0.61115C22.1771 0.517109 22.4214 0.479491 22.672 0.510838L58.44 5.12514ZM44.9938 16.292V50.916L57.3428 44.051L57.0836 9.14489L44.9938 16.292ZM40.8715 51.2953V16.6598L24.2696 14.9284L23.6939 31.44L17.5268 27.3085L11.3598 30.7368L12.6323 13.4666L4.14117 12.2806V47.5399L40.8715 51.2953ZM39.0552 5.2756L26.5819 12.0372L43.4314 14.1521L54.7606 7.30168L39.0552 5.2756ZM14.7619 10.5534L26.8422 3.69989L22.7007 3.16594L7.20132 9.6036L14.7619 10.5534Z" fill="#1E5D88"/>
</svg>
