<svg width="60" height="55" viewBox="0 0 60 55" fill="none" xmlns="http://www.w3.org/2000/svg">
<path d="M30 27.5C34.5466 27.5 38.9069 26.0513 42.1218 23.4727C45.3367 20.8941 47.1429 17.3967 47.1429 13.75C47.1429 10.1033 45.3367 6.60591 42.1218 4.02728C38.9069 1.44866 34.5466 0 30 0C25.4534 0 21.0931 1.44866 17.8782 4.02728C14.6633 6.60591 12.8571 10.1033 12.8571 13.75C12.8571 17.3967 14.6633 20.8941 17.8782 23.4727C21.0931 26.0513 25.4534 27.5 30 27.5ZM23.8795 32.6562C10.6875 32.6562 0 41.2285 0 51.8096C0 53.5713 1.78125 55 3.97768 55H56.0223C58.2187 55 60 53.5713 60 51.8096C60 41.2285 49.3125 32.6562 36.1205 32.6562H23.8795Z" fill="#1E5D88"/>
</svg>
