<svg width="23" height="23" viewBox="0 0 23 23" fill="none" xmlns="http://www.w3.org/2000/svg">
<g clip-path="url(#clip0_105_156)">
<path d="M21.7008 20.0237L17.4165 15.7394C17.2231 15.546 16.961 15.4386 16.686 15.4386H15.9855C17.1716 13.9216 17.8763 12.0137 17.8763 9.93815C17.8763 5.00068 13.8756 1 8.93815 1C4.00068 1 0 5.00068 0 9.93815C0 14.8756 4.00068 18.8763 8.93815 18.8763C11.0137 18.8763 12.9216 18.1716 14.4386 16.9855V17.686C14.4386 17.961 14.546 18.2231 14.7394 18.4165L19.0237 22.7008C19.4276 23.1047 20.0808 23.1047 20.4804 22.7008L21.6965 21.4847C22.1004 21.0808 22.1004 20.4276 21.7008 20.0237ZM8.93815 15.4386C5.90004 15.4386 3.43775 12.9806 3.43775 9.93815C3.43775 6.90004 5.89574 4.43775 8.93815 4.43775C11.9763 4.43775 14.4386 6.89574 14.4386 9.93815C14.4386 12.9763 11.9806 15.4386 8.93815 15.4386Z" fill="white"/>
</g>
<defs>
<clipPath id="clip0_105_156">
<rect width="23" height="23" fill="white"/>
</clipPath>
</defs>
</svg>
